# xmcd
#
# Track frame offsets:
#	150
#	12170
#	26150
#	40207
#	53377
#	71212
#	89042
#	100972
#	115800
#	130762
#	145322
#	156517
#	173815
#	185440
#	201745
#	214375
#
# Disc length: 3111 seconds
#
# Revision: 2
# Processed by: cddbd v1.5.2PL0 Copyright (c) Steve Scherf et al.
# Submitted via: audiograbber 1.83.01
#
DISCID=f30c2510
DTITLE=MH1060 Monster Hits - Female Country Hits (MH)
DYEAR=2008
DGENRE=Karaoke
TTITLE0=Barbara Mandrell - Sleeping Single In A Double Bed (MH)
TTITLE1=Loretta Lynn - Coal Miner's Daughter (MH)
TTITLE2=Dolly Parton - I Will Always Love You (MH)
TTITLE3=Kitty Wells - Makin' Believe (MH)
TTITLE4=The Judds - Love Is Alive (MH)
TTITLE5=Dottie West - A Lesson In Leavin' (MH)
TTITLE6=The Kendalls - Heaven's Just A Sent Away (MH)
TTITLE7=Crystal Gayle - Why Have You Left The One You Left Me For (MH)
TTITLE8=Olivia Newton John - If You Love Me (Let Me Know) (MH)
TTITLE9=Tanya Tucker - What's Your Mama's Name (MH)
TTITLE10=Marie Osmond - Paper Roses (MH)
TTITLE11=Patsy Cline - Faded Love (MH)
TTITLE12=Jody Miller - Queen Of The House (MH)
TTITLE13=Billie Jo Spears - Blanket On The Ground (MH)
TTITLE14=Anne Murray - I Just Fall In Love Again (MH)
TTITLE15=Juice Newton - The Sweetest Thing (I've ever known) (MH)
EXTD=
EXTT0=
EXTT1=
EXTT2=
EXTT3=
EXTT4=
EXTT5=
EXTT6=
EXTT7=
EXTT8=
EXTT9=
EXTT10=
EXTT11=
EXTT12=
EXTT13=
EXTT14=
EXTT15=
PLAYORDER=
